<svg width="640" height="512" viewBox="0 0 640 512" fill="none" xmlns="http://www.w3.org/2000/svg">
<path opacity="0.4" d="M624 448H608V40C608 29.3913 603.786 19.2172 596.284 11.7157C588.783 4.21427 578.609 0 568 0L72 0C61.3913 0 51.2172 4.21427 43.7157 11.7157C36.2143 19.2172 32 29.3913 32 40V448H16C11.7565 448 7.68687 449.686 4.68629 452.686C1.68571 455.687 0 459.757 0 464L0 496C0 500.243 1.68571 504.313 4.68629 507.314C7.68687 510.314 11.7565 512 16 512H624C628.243 512 632.313 510.314 635.314 507.314C638.314 504.313 640 500.243 640 496V464C640 459.757 638.314 455.687 635.314 452.686C632.313 449.686 628.243 448 624 448ZM96 448V64H544V448H96Z" fill="#AEAEAE"/>
<path d="M544 64V448H480V384H288V448H96V64H544Z" fill="#AEAEAE"/>
</svg>
