<svg width="110" height="33" viewBox="0 0 110 33" fill="none" xmlns="http://www.w3.org/2000/svg">
<rect width="110" height="33" rx="5" fill="#AEAEAE"/>
<path d="M47.5146 18.4478C47.4316 19.5952 47.0068 20.4985 46.2402 21.1577C45.4785 21.8169 44.4727 22.1465 43.2227 22.1465C41.8555 22.1465 40.7788 21.6875 39.9927 20.7695C39.2114 19.8467 38.8208 18.582 38.8208 16.9756V16.3237C38.8208 15.2983 39.0015 14.395 39.3628 13.6138C39.7241 12.8325 40.2393 12.2344 40.9082 11.8193C41.582 11.3994 42.3633 11.1895 43.252 11.1895C44.4824 11.1895 45.4736 11.519 46.2256 12.1782C46.9775 12.8374 47.4121 13.7627 47.5293 14.9541H45.332C45.2783 14.2656 45.0854 13.7676 44.7534 13.46C44.4263 13.1475 43.9258 12.9912 43.252 12.9912C42.5195 12.9912 41.9702 13.2549 41.604 13.7822C41.2427 14.3047 41.0571 15.1177 41.0474 16.2212V17.0269C41.0474 18.1792 41.2207 19.0215 41.5674 19.5537C41.9189 20.0859 42.4707 20.3521 43.2227 20.3521C43.9014 20.3521 44.4067 20.1982 44.7388 19.8906C45.0757 19.5781 45.2686 19.0972 45.3174 18.4478H47.5146ZM51.0522 22H48.9282V10.75H51.0522V22ZM55.0366 22H52.9126V14.0752H55.0366V22ZM52.7881 12.0244C52.7881 11.707 52.8931 11.4458 53.103 11.2407C53.3179 11.0356 53.6084 10.9331 53.9746 10.9331C54.3359 10.9331 54.624 11.0356 54.8389 11.2407C55.0537 11.4458 55.1611 11.707 55.1611 12.0244C55.1611 12.3467 55.0513 12.6104 54.8315 12.8154C54.6167 13.0205 54.3311 13.123 53.9746 13.123C53.6182 13.123 53.3301 13.0205 53.1104 12.8154C52.8955 12.6104 52.7881 12.3467 52.7881 12.0244ZM60.083 20.4399C60.4736 20.4399 60.791 20.3325 61.0352 20.1177C61.2793 19.9028 61.4062 19.6172 61.416 19.2607H63.4009C63.396 19.7979 63.2495 20.291 62.9614 20.7402C62.6733 21.1846 62.2778 21.5312 61.7749 21.7803C61.2769 22.0244 60.7251 22.1465 60.1196 22.1465C58.9868 22.1465 58.0933 21.7876 57.439 21.0698C56.7847 20.3472 56.4575 19.3511 56.4575 18.0815V17.9424C56.4575 16.7217 56.7822 15.7476 57.4316 15.02C58.0811 14.2925 58.9722 13.9287 60.105 13.9287C61.0962 13.9287 61.8896 14.2119 62.4854 14.7783C63.0859 15.3398 63.3911 16.0894 63.4009 17.0269H61.416C61.4062 16.6167 61.2793 16.2847 61.0352 16.0308C60.791 15.772 60.4688 15.6426 60.0684 15.6426C59.5752 15.6426 59.2017 15.8232 58.9478 16.1846C58.6987 16.541 58.5742 17.1221 58.5742 17.9277V18.1475C58.5742 18.9629 58.6987 19.5488 58.9478 19.9053C59.1968 20.2617 59.5752 20.4399 60.083 20.4399ZM67.4878 18.8213L66.7261 19.583V22H64.6094V10.75H66.7261V16.9829L67.1362 16.4556L69.165 14.0752H71.7065L68.8428 17.3784L71.9556 22H69.5239L67.4878 18.8213Z" fill="white"/>
</svg>
