<svg width="118" height="130" viewBox="0 0 118 130" fill="none" xmlns="http://www.w3.org/2000/svg">
<path opacity="0.4" d="M92.75 53.3403H25.25V45.3392L37.8201 33.4176C38.0161 33.2311 38.2489 33.0832 38.5053 32.9822C38.7617 32.8812 39.0366 32.8293 39.3143 32.8293C39.5919 32.8293 39.8668 32.8812 40.1232 32.9822C40.3796 33.0832 40.6124 33.2311 40.8084 33.4176L50.5625 42.6722L74.3826 20.0825C74.5786 19.896 74.8114 19.748 75.0678 19.6471C75.3242 19.5461 75.5991 19.4941 75.8768 19.4941C76.1544 19.4941 76.4293 19.5461 76.6857 19.6471C76.9421 19.748 77.1749 19.896 77.3709 20.0825L92.75 34.6711V53.3403Z" fill="#AEAEAE"/>
<path d="M95.5625 0H22.4375C20.1997 0 18.0536 0.842968 16.4713 2.34346C14.8889 3.84395 14 5.87906 14 8.00108L14 56.0075C14 58.1296 14.8889 60.1647 16.4713 61.6652C18.0536 63.1657 20.1997 64.0086 22.4375 64.0086H95.5625C97.8003 64.0086 99.9464 63.1657 101.529 61.6652C103.111 60.1647 104 58.1296 104 56.0075V8.00108C104 5.87906 103.111 3.84395 101.529 2.34346C99.9464 0.842968 97.8003 0 95.5625 0V0ZM33.6875 9.33459C35.6344 9.33459 37.5376 9.88205 39.1564 10.9078C40.7752 11.9334 42.0369 13.3913 42.7819 15.097C43.527 16.8027 43.7219 18.6795 43.3421 20.4903C42.9623 22.301 42.0248 23.9643 40.6481 25.2697C39.2714 26.5752 37.5174 27.4642 35.6079 27.8244C33.6984 28.1846 31.7192 27.9997 29.9205 27.2932C28.1217 26.5867 26.5844 25.3903 25.5027 23.8552C24.4211 22.3201 23.8438 20.5154 23.8438 18.6692C23.8438 16.1935 24.8809 13.8192 26.7269 12.0686C28.573 10.3181 31.0768 9.33459 33.6875 9.33459V9.33459ZM92.75 53.3405H25.25V45.3394L37.8201 33.4178C38.0161 33.2314 38.2489 33.0834 38.5053 32.9824C38.7617 32.8815 39.0366 32.8295 39.3143 32.8295C39.5919 32.8295 39.8668 32.8815 40.1232 32.9824C40.3796 33.0834 40.6124 33.2314 40.8084 33.4178L50.5625 42.6724L74.3826 20.0827C74.5786 19.8962 74.8114 19.7483 75.0678 19.6473C75.3242 19.5463 75.5991 19.4944 75.8768 19.4944C76.1544 19.4944 76.4293 19.5463 76.6857 19.6473C76.9421 19.7483 77.1749 19.8962 77.3709 20.0827L92.75 34.6713V53.3405Z" fill="#AEAEAE"/>
<rect y="74.0012" width="118" height="16" rx="3" fill="#FEFEFE"/>
<rect y="98.0012" width="118" height="7" fill="#AEAEAE"/>
<rect y="110.001" width="118" height="7" fill="#AEAEAE"/>
<rect y="122.001" width="60" height="7" fill="#AEAEAE"/>
</svg>
