<svg aria-hidden="true" focusable="false" data-prefix="fad" data-icon="image" class="svg-inline--fa fa-image fa-w-16" role="img" xmlns="http://www.w3.org/2000/svg" viewBox="0 0 512 512"><g class="fa-group"><path class="fa-secondary" fill="#AEAEAE" d="M448 384H64v-48l71.51-71.52a12 12 0 0 1 17 0L208 320l135.51-135.52a12 12 0 0 1 17 0L448 272z" opacity="0.4"></path><path class="fa-primary" fill="#AEAEAE" d="M464 64H48a48 48 0 0 0-48 48v288a48 48 0 0 0 48 48h416a48 48 0 0 0 48-48V112a48 48 0 0 0-48-48zm-352 56a56 56 0 1 1-56 56 56 56 0 0 1 56-56zm336 264H64v-48l71.51-71.52a12 12 0 0 1 17 0L208 320l135.51-135.52a12 12 0 0 1 17 0L448 272z"></path></g></svg>
