<svg width="110" height="28" viewBox="0 0 110 28" fill="none" xmlns="http://www.w3.org/2000/svg">
<path d="M2.34961 9.81641H6.22266V11H0.867188V2.46875H2.34961V9.81641ZM6.95508 7.77148C6.95508 7.15039 7.07812 6.5918 7.32422 6.0957C7.57031 5.5957 7.91602 5.21289 8.36133 4.94727C8.80664 4.67773 9.31836 4.54297 9.89648 4.54297C10.752 4.54297 11.4453 4.81836 11.9766 5.36914C12.5117 5.91992 12.8008 6.65039 12.8438 7.56055L12.8496 7.89453C12.8496 8.51953 12.7285 9.07812 12.4863 9.57031C12.248 10.0625 11.9043 10.4434 11.4551 10.7129C11.0098 10.9824 10.4941 11.1172 9.9082 11.1172C9.01367 11.1172 8.29688 10.8203 7.75781 10.2266C7.22266 9.62891 6.95508 8.83398 6.95508 7.8418V7.77148ZM8.37891 7.89453C8.37891 8.54688 8.51367 9.05859 8.7832 9.42969C9.05273 9.79688 9.42773 9.98047 9.9082 9.98047C10.3887 9.98047 10.7617 9.79297 11.0273 9.41797C11.2969 9.04297 11.4316 8.49414 11.4316 7.77148C11.4316 7.13086 11.293 6.62305 11.0156 6.24805C10.7422 5.87305 10.3691 5.68555 9.89648 5.68555C9.43164 5.68555 9.0625 5.87109 8.78906 6.24219C8.51562 6.60938 8.37891 7.16016 8.37891 7.89453ZM17.373 5.96094C17.1855 5.92969 16.9922 5.91406 16.793 5.91406C16.1406 5.91406 15.7012 6.16406 15.4746 6.66406V11H14.0508V4.66016H15.4102L15.4453 5.36914C15.7891 4.81836 16.2656 4.54297 16.875 4.54297C17.0781 4.54297 17.2461 4.57031 17.3789 4.625L17.373 5.96094ZM20.9473 11.1172C20.0449 11.1172 19.3125 10.834 18.75 10.2676C18.1914 9.69727 17.9121 8.93945 17.9121 7.99414V7.81836C17.9121 7.18555 18.0332 6.62109 18.2754 6.125C18.5215 5.625 18.8652 5.23633 19.3066 4.95898C19.748 4.68164 20.2402 4.54297 20.7832 4.54297C21.6465 4.54297 22.3125 4.81836 22.7812 5.36914C23.2539 5.91992 23.4902 6.69922 23.4902 7.70703V8.28125H19.3477C19.3906 8.80469 19.5645 9.21875 19.8691 9.52344C20.1777 9.82812 20.5645 9.98047 21.0293 9.98047C21.6816 9.98047 22.2129 9.7168 22.623 9.18945L23.3906 9.92188C23.1367 10.3008 22.7969 10.5957 22.3711 10.8066C21.9492 11.0137 21.4746 11.1172 20.9473 11.1172ZM20.7773 5.68555C20.3867 5.68555 20.0703 5.82227 19.8281 6.0957C19.5898 6.36914 19.4375 6.75 19.3711 7.23828H22.084V7.13281C22.0527 6.65625 21.9258 6.29688 21.7031 6.05469C21.4805 5.80859 21.1719 5.68555 20.7773 5.68555ZM25.9395 4.66016L25.9805 5.32227C26.4258 4.80273 27.0352 4.54297 27.8086 4.54297C28.6562 4.54297 29.2363 4.86719 29.5488 5.51562C30.0098 4.86719 30.6582 4.54297 31.4941 4.54297C32.1934 4.54297 32.7129 4.73633 33.0527 5.12305C33.3965 5.50977 33.5723 6.08008 33.5801 6.83398V11H32.1562V6.875C32.1562 6.47266 32.0684 6.17773 31.8926 5.99023C31.7168 5.80273 31.4258 5.70898 31.0195 5.70898C30.6953 5.70898 30.4297 5.79688 30.2227 5.97266C30.0195 6.14453 29.877 6.37109 29.7949 6.65234L29.8008 11H28.377V6.82812C28.3574 6.08203 27.9766 5.70898 27.2344 5.70898C26.6641 5.70898 26.2598 5.94141 26.0215 6.40625V11H24.5977V4.66016H25.9395ZM39.5449 11H38.1211V4.66016H39.5449V11ZM38.0332 3.01367C38.0332 2.79492 38.1016 2.61328 38.2383 2.46875C38.3789 2.32422 38.5781 2.25195 38.8359 2.25195C39.0938 2.25195 39.293 2.32422 39.4336 2.46875C39.5742 2.61328 39.6445 2.79492 39.6445 3.01367C39.6445 3.22852 39.5742 3.4082 39.4336 3.55273C39.293 3.69336 39.0938 3.76367 38.8359 3.76367C38.5781 3.76367 38.3789 3.69336 38.2383 3.55273C38.1016 3.4082 38.0332 3.22852 38.0332 3.01367ZM46.6523 7.89453C46.6523 8.875 46.4297 9.6582 45.9844 10.2441C45.5391 10.8262 44.9414 11.1172 44.1914 11.1172C43.4961 11.1172 42.9395 10.8887 42.5215 10.4316V13.4375H41.0977V4.66016H42.4102L42.4688 5.30469C42.8867 4.79688 43.4551 4.54297 44.1738 4.54297C44.9473 4.54297 45.5527 4.83203 45.9902 5.41016C46.4316 5.98438 46.6523 6.7832 46.6523 7.80664V7.89453ZM45.2344 7.77148C45.2344 7.13867 45.1074 6.63672 44.8535 6.26562C44.6035 5.89453 44.2441 5.70898 43.7754 5.70898C43.1934 5.70898 42.7754 5.94922 42.5215 6.42969V9.24219C42.7793 9.73438 43.2012 9.98047 43.7871 9.98047C44.2402 9.98047 44.5938 9.79883 44.8477 9.43555C45.1055 9.06836 45.2344 8.51367 45.2344 7.77148ZM51.416 9.27734C51.416 9.02344 51.3105 8.83008 51.0996 8.69727C50.8926 8.56445 50.5469 8.44727 50.0625 8.3457C49.5781 8.24414 49.1738 8.11523 48.8496 7.95898C48.1387 7.61523 47.7832 7.11719 47.7832 6.46484C47.7832 5.91797 48.0137 5.46094 48.4746 5.09375C48.9355 4.72656 49.5215 4.54297 50.2324 4.54297C50.9902 4.54297 51.6016 4.73047 52.0664 5.10547C52.5352 5.48047 52.7695 5.9668 52.7695 6.56445H51.3457C51.3457 6.29102 51.2441 6.06445 51.041 5.88477C50.8379 5.70117 50.5684 5.60938 50.2324 5.60938C49.9199 5.60938 49.6641 5.68164 49.4648 5.82617C49.2695 5.9707 49.1719 6.16406 49.1719 6.40625C49.1719 6.625 49.2637 6.79492 49.4473 6.91602C49.6309 7.03711 50.002 7.16016 50.5605 7.28516C51.1191 7.40625 51.5566 7.55273 51.873 7.72461C52.1934 7.89258 52.4297 8.0957 52.582 8.33398C52.7383 8.57227 52.8164 8.86133 52.8164 9.20117C52.8164 9.77148 52.5801 10.2344 52.1074 10.5898C51.6348 10.9414 51.0156 11.1172 50.25 11.1172C49.7305 11.1172 49.2676 11.0234 48.8613 10.8359C48.4551 10.6484 48.1387 10.3906 47.9121 10.0625C47.6855 9.73438 47.5723 9.38086 47.5723 9.00195H48.9551C48.9746 9.33789 49.1016 9.59766 49.3359 9.78125C49.5703 9.96094 49.8809 10.0508 50.2676 10.0508C50.6426 10.0508 50.9277 9.98047 51.123 9.83984C51.3184 9.69531 51.416 9.50781 51.416 9.27734ZM57.9023 10.3789C57.4844 10.8711 56.8906 11.1172 56.1211 11.1172C55.4336 11.1172 54.9121 10.916 54.5566 10.5137C54.2051 10.1113 54.0293 9.5293 54.0293 8.76758V4.66016H55.4531V8.75C55.4531 9.55469 55.7871 9.95703 56.4551 9.95703C57.1465 9.95703 57.6133 9.70898 57.8555 9.21289V4.66016H59.2793V11H57.9375L57.9023 10.3789ZM62.0684 4.66016L62.1094 5.32227C62.5547 4.80273 63.1641 4.54297 63.9375 4.54297C64.7852 4.54297 65.3652 4.86719 65.6777 5.51562C66.1387 4.86719 66.7871 4.54297 67.623 4.54297C68.3223 4.54297 68.8418 4.73633 69.1816 5.12305C69.5254 5.50977 69.7012 6.08008 69.709 6.83398V11H68.2852V6.875C68.2852 6.47266 68.1973 6.17773 68.0215 5.99023C67.8457 5.80273 67.5547 5.70898 67.1484 5.70898C66.8242 5.70898 66.5586 5.79688 66.3516 5.97266C66.1484 6.14453 66.0059 6.37109 65.9238 6.65234L65.9297 11H64.5059V6.82812C64.4863 6.08203 64.1055 5.70898 63.3633 5.70898C62.793 5.70898 62.3887 5.94141 62.1504 6.40625V11H60.7266V4.66016H62.0684ZM73.8926 7.7832C73.8926 6.80664 74.1191 6.02344 74.5723 5.43359C75.0254 4.83984 75.6328 4.54297 76.3945 4.54297C77.0664 4.54297 77.6094 4.77734 78.0234 5.24609V2H79.4473V11H78.1582L78.0879 10.3438C77.6621 10.8594 77.0938 11.1172 76.3828 11.1172C75.6406 11.1172 75.0391 10.8184 74.5781 10.2207C74.1211 9.62305 73.8926 8.81055 73.8926 7.7832ZM75.3164 7.90625C75.3164 8.55078 75.4395 9.05469 75.6855 9.41797C75.9355 9.77734 76.2891 9.95703 76.7461 9.95703C77.3281 9.95703 77.7539 9.69727 78.0234 9.17773V6.4707C77.7617 5.96289 77.3398 5.70898 76.7578 5.70898C76.2969 5.70898 75.9414 5.89258 75.6914 6.25977C75.4414 6.62305 75.3164 7.17188 75.3164 7.90625ZM80.666 7.77148C80.666 7.15039 80.7891 6.5918 81.0352 6.0957C81.2812 5.5957 81.627 5.21289 82.0723 4.94727C82.5176 4.67773 83.0293 4.54297 83.6074 4.54297C84.4629 4.54297 85.1562 4.81836 85.6875 5.36914C86.2227 5.91992 86.5117 6.65039 86.5547 7.56055L86.5605 7.89453C86.5605 8.51953 86.4395 9.07812 86.1973 9.57031C85.959 10.0625 85.6152 10.4434 85.166 10.7129C84.7207 10.9824 84.2051 11.1172 83.6191 11.1172C82.7246 11.1172 82.0078 10.8203 81.4688 10.2266C80.9336 9.62891 80.666 8.83398 80.666 7.8418V7.77148ZM82.0898 7.89453C82.0898 8.54688 82.2246 9.05859 82.4941 9.42969C82.7637 9.79688 83.1387 9.98047 83.6191 9.98047C84.0996 9.98047 84.4727 9.79297 84.7383 9.41797C85.0078 9.04297 85.1426 8.49414 85.1426 7.77148C85.1426 7.13086 85.0039 6.62305 84.7266 6.24805C84.4531 5.87305 84.0801 5.68555 83.6074 5.68555C83.1426 5.68555 82.7734 5.87109 82.5 6.24219C82.2266 6.60938 82.0898 7.16016 82.0898 7.89453ZM89.2793 11H87.8555V2H89.2793V11ZM90.5684 7.77148C90.5684 7.15039 90.6914 6.5918 90.9375 6.0957C91.1836 5.5957 91.5293 5.21289 91.9746 4.94727C92.4199 4.67773 92.9316 4.54297 93.5098 4.54297C94.3652 4.54297 95.0586 4.81836 95.5898 5.36914C96.125 5.91992 96.4141 6.65039 96.457 7.56055L96.4629 7.89453C96.4629 8.51953 96.3418 9.07812 96.0996 9.57031C95.8613 10.0625 95.5176 10.4434 95.0684 10.7129C94.623 10.9824 94.1074 11.1172 93.5215 11.1172C92.627 11.1172 91.9102 10.8203 91.3711 10.2266C90.8359 9.62891 90.5684 8.83398 90.5684 7.8418V7.77148ZM91.9922 7.89453C91.9922 8.54688 92.127 9.05859 92.3965 9.42969C92.666 9.79688 93.041 9.98047 93.5215 9.98047C94.002 9.98047 94.375 9.79297 94.6406 9.41797C94.9102 9.04297 95.0449 8.49414 95.0449 7.77148C95.0449 7.13086 94.9062 6.62305 94.6289 6.24805C94.3555 5.87305 93.9824 5.68555 93.5098 5.68555C93.0449 5.68555 92.6758 5.87109 92.4023 6.24219C92.1289 6.60938 91.9922 7.16016 91.9922 7.89453ZM100.986 5.96094C100.799 5.92969 100.605 5.91406 100.406 5.91406C99.7539 5.91406 99.3145 6.16406 99.0879 6.66406V11H97.6641V4.66016H99.0234L99.0586 5.36914C99.4023 4.81836 99.8789 4.54297 100.488 4.54297C100.691 4.54297 100.859 4.57031 100.992 4.625L100.986 5.96094ZM4.2832 23.2773C4.2832 23.0234 4.17773 22.8301 3.9668 22.6973C3.75977 22.5645 3.41406 22.4473 2.92969 22.3457C2.44531 22.2441 2.04102 22.1152 1.7168 21.959C1.00586 21.6152 0.650391 21.1172 0.650391 20.4648C0.650391 19.918 0.880859 19.4609 1.3418 19.0938C1.80273 18.7266 2.38867 18.543 3.09961 18.543C3.85742 18.543 4.46875 18.7305 4.93359 19.1055C5.40234 19.4805 5.63672 19.9668 5.63672 20.5645H4.21289C4.21289 20.291 4.11133 20.0645 3.9082 19.8848C3.70508 19.7012 3.43555 19.6094 3.09961 19.6094C2.78711 19.6094 2.53125 19.6816 2.33203 19.8262C2.13672 19.9707 2.03906 20.1641 2.03906 20.4062C2.03906 20.625 2.13086 20.7949 2.31445 20.916C2.49805 21.0371 2.86914 21.1602 3.42773 21.2852C3.98633 21.4062 4.42383 21.5527 4.74023 21.7246C5.06055 21.8926 5.29688 22.0957 5.44922 22.334C5.60547 22.5723 5.68359 22.8613 5.68359 23.2012C5.68359 23.7715 5.44727 24.2344 4.97461 24.5898C4.50195 24.9414 3.88281 25.1172 3.11719 25.1172C2.59766 25.1172 2.13477 25.0234 1.72852 24.8359C1.32227 24.6484 1.00586 24.3906 0.779297 24.0625C0.552734 23.7344 0.439453 23.3809 0.439453 23.002H1.82227C1.8418 23.3379 1.96875 23.5977 2.20312 23.7812C2.4375 23.9609 2.74805 24.0508 3.13477 24.0508C3.50977 24.0508 3.79492 23.9805 3.99023 23.8398C4.18555 23.6953 4.2832 23.5078 4.2832 23.2773ZM8.44336 25H7.01953V18.6602H8.44336V25ZM6.93164 17.0137C6.93164 16.7949 7 16.6133 7.13672 16.4688C7.27734 16.3242 7.47656 16.252 7.73438 16.252C7.99219 16.252 8.19141 16.3242 8.33203 16.4688C8.47266 16.6133 8.54297 16.7949 8.54297 17.0137C8.54297 17.2285 8.47266 17.4082 8.33203 17.5527C8.19141 17.6934 7.99219 17.7637 7.73438 17.7637C7.47656 17.7637 7.27734 17.6934 7.13672 17.5527C7 17.4082 6.93164 17.2285 6.93164 17.0137ZM11.7832 17.1191V18.6602H12.9023V19.7148H11.7832V23.2539C11.7832 23.4961 11.8301 23.6719 11.9238 23.7812C12.0215 23.8867 12.1934 23.9395 12.4395 23.9395C12.6035 23.9395 12.7695 23.9199 12.9375 23.8809V24.9824C12.6133 25.0723 12.3008 25.1172 12 25.1172C10.9062 25.1172 10.3594 24.5137 10.3594 23.3066V19.7148H9.31641V18.6602H10.3594V17.1191H11.7832ZM20.7715 25C20.709 24.8789 20.6543 24.6816 20.6074 24.4082C20.1543 24.8809 19.5996 25.1172 18.9434 25.1172C18.3066 25.1172 17.7871 24.9355 17.3848 24.5723C16.9824 24.209 16.7812 23.7598 16.7812 23.2246C16.7812 22.5488 17.0312 22.0312 17.5312 21.6719C18.0352 21.3086 18.7539 21.127 19.6875 21.127H20.5605V20.7109C20.5605 20.3828 20.4688 20.1211 20.2852 19.9258C20.1016 19.7266 19.8223 19.627 19.4473 19.627C19.123 19.627 18.8574 19.709 18.6504 19.873C18.4434 20.0332 18.3398 20.2383 18.3398 20.4883H16.916C16.916 20.1406 17.0312 19.8164 17.2617 19.5156C17.4922 19.2109 17.8047 18.9727 18.1992 18.8008C18.5977 18.6289 19.041 18.543 19.5293 18.543C20.2715 18.543 20.8633 18.7305 21.3047 19.1055C21.7461 19.4766 21.9727 20 21.9844 20.6758V23.5352C21.9844 24.1055 22.0645 24.5605 22.2246 24.9004V25H20.7715ZM19.207 23.9746C19.4883 23.9746 19.752 23.9062 19.998 23.7695C20.248 23.6328 20.4355 23.4492 20.5605 23.2188V22.0234H19.793C19.2656 22.0234 18.8691 22.1152 18.6035 22.2988C18.3379 22.4824 18.2051 22.7422 18.2051 23.0781C18.2051 23.3516 18.2949 23.5703 18.4746 23.7344C18.6582 23.8945 18.9023 23.9746 19.207 23.9746ZM24.8145 18.6602L24.8555 19.3223C25.3008 18.8027 25.9102 18.543 26.6836 18.543C27.5312 18.543 28.1113 18.8672 28.4238 19.5156C28.8848 18.8672 29.5332 18.543 30.3691 18.543C31.0684 18.543 31.5879 18.7363 31.9277 19.123C32.2715 19.5098 32.4473 20.0801 32.4551 20.834V25H31.0312V20.875C31.0312 20.4727 30.9434 20.1777 30.7676 19.9902C30.5918 19.8027 30.3008 19.709 29.8945 19.709C29.5703 19.709 29.3047 19.7969 29.0977 19.9727C28.8945 20.1445 28.752 20.3711 28.6699 20.6523L28.6758 25H27.252V20.8281C27.2324 20.082 26.8516 19.709 26.1094 19.709C25.5391 19.709 25.1348 19.9414 24.8965 20.4062V25H23.4727V18.6602H24.8145ZM36.709 25.1172C35.8066 25.1172 35.0742 24.834 34.5117 24.2676C33.9531 23.6973 33.6738 22.9395 33.6738 21.9941V21.8184C33.6738 21.1855 33.7949 20.6211 34.0371 20.125C34.2832 19.625 34.627 19.2363 35.0684 18.959C35.5098 18.6816 36.002 18.543 36.5449 18.543C37.4082 18.543 38.0742 18.8184 38.543 19.3691C39.0156 19.9199 39.252 20.6992 39.252 21.707V22.2812H35.1094C35.1523 22.8047 35.3262 23.2188 35.6309 23.5234C35.9395 23.8281 36.3262 23.9805 36.791 23.9805C37.4434 23.9805 37.9746 23.7168 38.3848 23.1895L39.1523 23.9219C38.8984 24.3008 38.5586 24.5957 38.1328 24.8066C37.7109 25.0137 37.2363 25.1172 36.709 25.1172ZM36.5391 19.6855C36.1484 19.6855 35.832 19.8223 35.5898 20.0957C35.3516 20.3691 35.1992 20.75 35.1328 21.2383H37.8457V21.1328C37.8145 20.6562 37.6875 20.2969 37.4648 20.0547C37.2422 19.8086 36.9336 19.6855 36.5391 19.6855ZM42.1465 17.1191V18.6602H43.2656V19.7148H42.1465V23.2539C42.1465 23.4961 42.1934 23.6719 42.2871 23.7812C42.3848 23.8867 42.5566 23.9395 42.8027 23.9395C42.9668 23.9395 43.1328 23.9199 43.3008 23.8809V24.9824C42.9766 25.0723 42.6641 25.1172 42.3633 25.1172C41.2695 25.1172 40.7227 24.5137 40.7227 23.3066V19.7148H39.6797V18.6602H40.7227V17.1191H42.1465Z" fill="white"/>
</svg>
