<svg width="178" height="69" viewBox="0 0 178 69" fill="none" xmlns="http://www.w3.org/2000/svg">
<path d="M29.1245 33.6064C29.1245 32.3613 28.6851 31.4092 27.8062 30.75C26.9272 30.0762 25.3452 29.373 23.0601 28.6406C20.7749 27.8936 18.9658 27.1611 17.6328 26.4434C14 24.4805 12.1836 21.8364 12.1836 18.5112C12.1836 16.7827 12.667 15.2446 13.6338 13.897C14.6152 12.5347 16.0142 11.4727 17.8306 10.7109C19.6616 9.94922 21.7124 9.56836 23.9829 9.56836C26.2681 9.56836 28.3042 9.98584 30.0913 10.8208C31.8784 11.6411 33.2627 12.8057 34.2441 14.3145C35.2402 15.8232 35.7383 17.5371 35.7383 19.4561H29.1465C29.1465 17.9912 28.6851 16.856 27.7622 16.0503C26.8394 15.23 25.543 14.8198 23.873 14.8198C22.2617 14.8198 21.0093 15.1641 20.1157 15.8525C19.2222 16.5264 18.7754 17.4199 18.7754 18.5332C18.7754 19.5732 19.2954 20.4448 20.3354 21.1479C21.3901 21.8511 22.9355 22.5103 24.9717 23.1255C28.7217 24.2534 31.4536 25.6523 33.1675 27.3223C34.8813 28.9922 35.7383 31.0723 35.7383 33.5625C35.7383 36.3311 34.6909 38.5063 32.5962 40.0884C30.5015 41.6558 27.6816 42.4395 24.1367 42.4395C21.6758 42.4395 19.4346 41.9927 17.4131 41.0991C15.3916 40.1909 13.8462 38.9531 12.7769 37.3857C11.7222 35.8184 11.1948 34.002 11.1948 31.9365H17.8086C17.8086 35.4668 19.918 37.2319 24.1367 37.2319C25.7041 37.2319 26.9272 36.917 27.8062 36.2871C28.6851 35.6426 29.1245 34.749 29.1245 33.6064ZM64.3027 15.3472H54.5029V42H47.9111V15.3472H38.2432V10.0078H64.3027V15.3472ZM92.2959 10.0078V31.0796C92.2959 34.5806 91.1973 37.3491 89 39.3853C86.8174 41.4214 83.8291 42.4395 80.0352 42.4395C76.2998 42.4395 73.3335 41.4507 71.1362 39.4731C68.939 37.4956 67.8184 34.7783 67.7744 31.3213V10.0078H74.3662V31.1235C74.3662 33.2183 74.8643 34.749 75.8604 35.7158C76.8711 36.668 78.2627 37.144 80.0352 37.144C83.7412 37.144 85.6235 35.1958 85.6821 31.2993V10.0078H92.2959ZM97.7012 42V10.0078H107.545C110.357 10.0078 112.87 10.645 115.082 11.9194C117.308 13.1792 119.044 14.981 120.289 17.3247C121.534 19.6538 122.157 22.3052 122.157 25.2788V26.751C122.157 29.7246 121.542 32.3687 120.311 34.6831C119.095 36.9976 117.374 38.792 115.147 40.0664C112.921 41.3408 110.409 41.9854 107.611 42H97.7012ZM104.293 15.3472V36.7046H107.479C110.057 36.7046 112.027 35.8623 113.39 34.1777C114.752 32.4932 115.448 30.0835 115.477 26.9487V25.2568C115.477 22.0049 114.803 19.5439 113.456 17.874C112.108 16.1895 110.138 15.3472 107.545 15.3472H104.293ZM133.978 42H127.386V10.0078H133.978V42Z" fill="white"/>
<path d="M166.388 26.729C166.388 29.8784 165.831 32.6396 164.718 35.0127C163.604 37.3857 162.008 39.2168 159.928 40.5059C157.862 41.7949 155.489 42.4395 152.809 42.4395C150.157 42.4395 147.792 41.8022 145.711 40.5278C143.631 39.2534 142.02 37.437 140.877 35.0786C139.735 32.7056 139.156 29.981 139.142 26.9048V25.3228C139.142 22.1733 139.706 19.4048 140.833 17.0171C141.976 14.6147 143.58 12.7764 145.646 11.502C147.726 10.2129 150.099 9.56836 152.765 9.56836C155.431 9.56836 157.796 10.2129 159.862 11.502C161.942 12.7764 163.546 14.6147 164.674 17.0171C165.816 19.4048 166.388 22.166 166.388 25.3008V26.729ZM159.708 25.2788C159.708 21.9243 159.107 19.3755 157.906 17.6323C156.705 15.8892 154.991 15.0176 152.765 15.0176C150.553 15.0176 148.846 15.8818 147.645 17.6104C146.444 19.3242 145.836 21.8438 145.821 25.1689V26.729C145.821 29.9956 146.422 32.5298 147.623 34.3315C148.824 36.1333 150.553 37.0342 152.809 37.0342C155.021 37.0342 156.72 36.1699 157.906 34.4414C159.093 32.6982 159.693 30.1641 159.708 26.8389V25.2788Z" fill="#C94940"/>
<path d="M103.377 61V52.4688H106.166C107.092 52.4688 107.787 52.6602 108.252 53.043C108.721 53.4258 108.955 53.9922 108.955 54.7422C108.955 55.1406 108.842 55.4941 108.615 55.8027C108.389 56.1074 108.08 56.3438 107.689 56.5117C108.15 56.6406 108.514 56.8867 108.779 57.25C109.049 57.6094 109.184 58.0391 109.184 58.5391C109.184 59.3047 108.936 59.9062 108.439 60.3438C107.943 60.7812 107.242 61 106.336 61H103.377ZM104.502 57.0098V60.0801H106.359C106.883 60.0801 107.295 59.9453 107.596 59.6758C107.9 59.4023 108.053 59.0273 108.053 58.5508C108.053 57.5234 107.494 57.0098 106.377 57.0098H104.502ZM104.502 56.1074H106.201C106.693 56.1074 107.086 55.9844 107.379 55.7383C107.676 55.4922 107.824 55.1582 107.824 54.7363C107.824 54.2676 107.688 53.9277 107.414 53.7168C107.141 53.502 106.725 53.3945 106.166 53.3945H104.502V56.1074ZM112.758 59.4121L114.234 54.6602H115.395L112.846 61.9785C112.451 63.0332 111.824 63.5605 110.965 63.5605L110.76 63.543L110.355 63.4668V62.5879L110.648 62.6113C111.016 62.6113 111.301 62.5371 111.504 62.3887C111.711 62.2402 111.881 61.9688 112.014 61.5742L112.254 60.9297L109.992 54.6602H111.176L112.758 59.4121ZM124.225 58.7734H120.65L119.848 61H118.688L121.945 52.4688H122.93L126.193 61H125.039L124.225 58.7734ZM120.99 57.8477H123.891L122.438 53.8574L120.99 57.8477ZM128.35 61H127.266V52H128.35V61ZM129.832 57.7773C129.832 56.7891 130.061 56.0039 130.518 55.4219C130.975 54.8359 131.58 54.543 132.334 54.543C133.107 54.543 133.711 54.8164 134.145 55.3633L134.197 54.6602H135.188V60.8477C135.188 61.668 134.943 62.3145 134.455 62.7871C133.971 63.2598 133.318 63.4961 132.498 63.4961C132.041 63.4961 131.594 63.3984 131.156 63.2031C130.719 63.0078 130.385 62.7402 130.154 62.4004L130.717 61.75C131.182 62.3242 131.75 62.6113 132.422 62.6113C132.949 62.6113 133.359 62.4629 133.652 62.166C133.949 61.8691 134.098 61.4512 134.098 60.9121V60.3672C133.664 60.8672 133.072 61.1172 132.322 61.1172C131.58 61.1172 130.979 60.8184 130.518 60.2207C130.061 59.623 129.832 58.8086 129.832 57.7773ZM130.922 57.9004C130.922 58.6152 131.068 59.1777 131.361 59.5879C131.654 59.9941 132.064 60.1973 132.592 60.1973C133.275 60.1973 133.777 59.8867 134.098 59.2656V56.3711C133.766 55.7656 133.268 55.4629 132.604 55.4629C132.076 55.4629 131.664 55.668 131.367 56.0781C131.07 56.4883 130.922 57.0957 130.922 57.9004ZM136.541 57.7715C136.541 57.1504 136.662 56.5918 136.904 56.0957C137.15 55.5996 137.49 55.2168 137.924 54.9473C138.361 54.6777 138.859 54.543 139.418 54.543C140.281 54.543 140.979 54.8418 141.51 55.4395C142.045 56.0371 142.312 56.832 142.312 57.8242V57.9004C142.312 58.5176 142.193 59.0723 141.955 59.5645C141.721 60.0527 141.383 60.4336 140.941 60.707C140.504 60.9805 140 61.1172 139.43 61.1172C138.57 61.1172 137.873 60.8184 137.338 60.2207C136.807 59.623 136.541 58.832 136.541 57.8477V57.7715ZM137.631 57.9004C137.631 58.6035 137.793 59.168 138.117 59.5938C138.445 60.0195 138.883 60.2324 139.43 60.2324C139.98 60.2324 140.418 60.0176 140.742 59.5879C141.066 59.1543 141.229 58.5488 141.229 57.7715C141.229 57.0762 141.062 56.5137 140.73 56.084C140.402 55.6504 139.965 55.4336 139.418 55.4336C138.883 55.4336 138.451 55.6465 138.123 56.0723C137.795 56.498 137.631 57.1074 137.631 57.9004ZM143.279 54.8711L142.664 54.4492C143.027 53.9414 143.215 53.4062 143.227 52.8438V52H144.299V52.7617C144.295 53.1523 144.197 53.543 144.006 53.9336C143.818 54.3203 143.576 54.6328 143.279 54.8711ZM151.67 53.3945H148.928V61H147.809V53.3945H145.072V52.4688H151.67V53.3945ZM154.811 61.1172C153.951 61.1172 153.252 60.8359 152.713 60.2734C152.174 59.707 151.904 58.9512 151.904 58.0059V57.8066C151.904 57.1777 152.023 56.6172 152.262 56.125C152.504 55.6289 152.84 55.2422 153.27 54.9648C153.703 54.6836 154.172 54.543 154.676 54.543C155.5 54.543 156.141 54.8145 156.598 55.3574C157.055 55.9004 157.283 56.6777 157.283 57.6895V58.1406H152.988C153.004 58.7656 153.186 59.2715 153.533 59.6582C153.885 60.041 154.33 60.2324 154.869 60.2324C155.252 60.2324 155.576 60.1543 155.842 59.998C156.107 59.8418 156.34 59.6348 156.539 59.377L157.201 59.8926C156.67 60.709 155.873 61.1172 154.811 61.1172ZM154.676 55.4336C154.238 55.4336 153.871 55.5938 153.574 55.9141C153.277 56.2305 153.094 56.6758 153.023 57.25H156.199V57.168C156.168 56.6172 156.02 56.1914 155.754 55.8906C155.488 55.5859 155.129 55.4336 154.676 55.4336ZM161.086 60.2324C161.473 60.2324 161.811 60.1152 162.1 59.8809C162.389 59.6465 162.549 59.3535 162.58 59.002H163.605C163.586 59.3652 163.461 59.7109 163.23 60.0391C163 60.3672 162.691 60.6289 162.305 60.8242C161.922 61.0195 161.516 61.1172 161.086 61.1172C160.223 61.1172 159.535 60.8301 159.023 60.2559C158.516 59.6777 158.262 58.8887 158.262 57.8887V57.707C158.262 57.0898 158.375 56.541 158.602 56.0605C158.828 55.5801 159.152 55.207 159.574 54.9414C160 54.6758 160.502 54.543 161.08 54.543C161.791 54.543 162.381 54.7559 162.85 55.1816C163.322 55.6074 163.574 56.1602 163.605 56.8398H162.58C162.549 56.4297 162.393 56.0938 162.111 55.832C161.834 55.5664 161.49 55.4336 161.08 55.4336C160.529 55.4336 160.102 55.6328 159.797 56.0312C159.496 56.4258 159.346 56.998 159.346 57.748V57.9531C159.346 58.6836 159.496 59.2461 159.797 59.6406C160.098 60.0352 160.527 60.2324 161.086 60.2324ZM165.908 55.4277C166.389 54.8379 167.014 54.543 167.783 54.543C169.123 54.543 169.799 55.2988 169.811 56.8105V61H168.727V56.8047C168.723 56.3477 168.617 56.0098 168.41 55.791C168.207 55.5723 167.889 55.4629 167.455 55.4629C167.104 55.4629 166.795 55.5566 166.529 55.7441C166.264 55.9316 166.057 56.1777 165.908 56.4824V61H164.824V52H165.908V55.4277Z" fill="white"/>
</svg>
