<svg width="90" height="90" viewBox="0 0 90 90" fill="none" xmlns="http://www.w3.org/2000/svg">
<path fill-rule="evenodd" clip-rule="evenodd" d="M12.712 88.6306C14.9702 89.5147 17.4284 90 20 90H70C72.7543 90 75.3786 89.4432 77.7664 88.4361L64.7267 76H25.9557L12.712 88.6306ZM14 63.1803L0.834732 75.7361C0.291694 73.9191 0 71.9936 0 70V20C0 18.2362 0.228325 16.5257 0.657031 14.8965L14 27.6217V63.1803ZM76 28.2725V62.5273L89.3113 75.2224C89.7604 73.5576 90 71.8068 90 70V20C90 18.425 89.8179 16.8926 89.4737 15.4225L76 28.2725ZM78.3417 1.81732L65.5676 14H25.117L12.1255 1.60987C14.5421 0.573725 17.2041 0 20 0H70C72.9773 0 75.8027 0.650573 78.3417 1.81732Z" fill="#c9c9c9"/>
</svg>
