<svg width="512" height="512" viewBox="0 0 512 512" fill="none" xmlns="http://www.w3.org/2000/svg">
<path d="M512 255.1C512 263.288 508.875 271.51 502.625 277.76L430.625 349.76C424.4 356.9 416.2 360 408 360C389.72 360 376 345.05 376 328C376 319.812 379.125 311.62 385.375 305.38L402.8 288H109.3L126.68 305.38C132.9 311.6 136 319.8 136 328C136 345.05 122.27 360 104 360C95.812 360 87.62 356.875 81.38 350.625L9.38 278.625C3.125 272.4 0 264.2 0 255.1C0 246 3.125 238.76 9.375 232.51L81.375 160.51C87.63 155.1 95.81 152 104 152C122.28 152 136 166.95 136 184C136 192.188 132.875 200.38 126.625 206.62L109.3 224H402.8L385.42 206.62C379.1 200.4 376 192.2 376 184C376 166.95 389.73 152 408 152C416.188 152 424.38 155.125 430.62 161.375L502.62 233.375C508.9 239.6 512 247.8 512 255.1Z" fill="white"/>
<path opacity="0.4" d="M184 136C192.188 136 200.38 132.875 206.62 126.625L224 109.3V224H288V109.3L305.38 126.68C311.6 132.9 319.8 136 328 136C346.28 136 360 121.05 360 104C360 95.812 356.875 87.62 350.625 81.38L278.625 9.38C272.4 3.125 264.2 0 256 0C247.8 0 239.6 3.125 233.4 9.375L161.4 81.375C155.1 87.63 152 95.81 152 104C152 121.1 165.7 136 184 136ZM328 376C319.812 376 311.62 379.125 305.38 385.375L288 402.8V288H224V402.8L206.62 385.42C200.4 379.1 192.2 376 184 376C165.72 376 152 390.95 152 408C152 416.188 155.125 424.38 161.375 430.62L233.375 502.62C239.6 508.9 247.8 512 256 512C264.2 512 272.38 508.875 278.62 502.625L350.62 430.625C356.9 424.4 360 416.2 360 408C360 390.9 346.3 376 328 376Z" fill="white"/>
</svg>
