<svg id="Calque_1" data-name="Calque 1" xmlns="http://www.w3.org/2000/svg" viewBox="0 0 166.16 157.48"><defs><style>.cls-1{fill:#d6544c;}</style></defs><path class="cls-1" d="M158.54,55.53H131.71c.34,1.26.64,2.57.91,3.93h26.57C159,58.12,158.78,56.81,158.54,55.53Z"/><path class="cls-1" d="M34.31,55.49H7.63c-.24,1.28-.45,2.59-.65,3.92h26.4Q33.78,57.38,34.31,55.49Z"/><path class="cls-1" d="M124.72,41.2a32.12,32.12,0,0,1,2.77,3.93H156c-.42-1.34-.88-2.65-1.36-3.93Z"/><path class="cls-1" d="M129.19,48.36c.57,1.25,1.09,2.55,1.57,3.93h27.13c-.3-1.34-.62-2.65-1-3.93Z"/><path class="cls-1" d="M115.91,34A29.5,29.5,0,0,1,121.58,38h31.73c-.59-1.34-1.21-2.66-1.87-3.93Z"/><path class="cls-1" d="M12.87,38H44.49A29.31,29.31,0,0,1,50.2,34H14.72C14.06,35.28,13.45,36.6,12.87,38Z"/><path class="cls-1" d="M25.3,19.71a51,51,0,0,0-3.69,3.93H67.08V19.72Z"/><path class="cls-1" d="M19.12,26.86c-.9,1.26-1.77,2.57-2.59,3.93H58.86a53,53,0,0,1,8.22-1.27V26.88Z"/><path class="cls-1" d="M96.54,23.65l48,0a50.61,50.61,0,0,0-3.67-3.93H96.54Z"/><path class="cls-1" d="M67.08,16.49V12.56H34.65A53.21,53.21,0,0,0,29,16.48Z"/><path class="cls-1" d="M67.08,9.33V5.41H52.92A65.53,65.53,0,0,0,40.86,9.33Z"/><path class="cls-1" d="M11.55,41.17q-.72,1.92-1.35,3.93H38.59a30.48,30.48,0,0,1,2.79-3.93Z"/><path class="cls-1" d="M36.89,48.34H9.25c-.34,1.28-.67,2.59-1,3.93h27A42.16,42.16,0,0,1,36.89,48.34Z"/><path class="cls-1" d="M96.54,9.34h28.73a66,66,0,0,0-12.08-3.93H96.54Z"/><path class="cls-1" d="M133.94,69.83c.17,2.54.29,5.16.29,8,0,34.17-12.35,48.28-41,48.28H72.94C44.06,126.06,31.72,112,31.72,78c0-2.89.12-5.59.3-8.2H5.94q-.24,4-.24,8.2c0,49.83,23.81,74.08,67.24,74.08H93.22c43.43,0,67.24-24.25,67.24-74.08q0-4.2-.23-8.16Z"/><path class="cls-1" d="M96.54,29.39a57,57,0,0,1,10.58,1.42l42.53,0c-.82-1.37-1.69-2.67-2.6-3.93l-50.51,0Z"/><path class="cls-1" d="M32.78,62.65H6.56c-.15,1.28-.28,2.58-.39,3.89H32.28C32.41,65.2,32.59,63.91,32.78,62.65Z"/><path class="cls-1" d="M159.61,62.68H133.19c.19,1.27.37,2.55.51,3.9H160C159.88,65.26,159.76,64,159.61,62.68Z"/><path class="cls-1" d="M96.54,12.57V16.5h40.68a52.68,52.68,0,0,0-5.69-3.93Z"/></svg>